<svg width="636" height="274" viewBox="0 0 636 274" fill="none" xmlns="http://www.w3.org/2000/svg">
<path d="M27.628 143.389V182.425C27.628 183.732 26.9744 184.386 25.6673 184.386H12.1207C10.8135 184.386 10.16 183.732 10.16 182.425V87.4205C10.16 85.9946 10.8135 85.2816 12.1207 85.2816H58.1078C65 85.2816 68.446 88.6682 68.446 95.4415V99.1847C68.446 99.7788 68.2084 100.373 67.7331 100.967C67.3766 101.442 66.7824 101.68 65.9506 101.68H27.628V127.526H54.0082C61.0192 127.526 64.5246 130.793 64.5246 137.329V140.894C64.5246 142.558 63.6928 143.389 62.0292 143.389H27.628ZM127.892 176.008C125.515 179.217 122.485 181.712 118.802 183.495C115.118 185.158 111.196 185.99 107.037 185.99C100.383 185.99 94.7385 184.386 90.1042 181.177C85.5886 177.969 82.1426 173.691 79.766 168.344C77.5082 162.996 76.3793 157.114 76.3793 150.697C76.3793 144.043 77.627 138.101 80.1225 132.873C82.6179 127.526 86.1828 123.307 90.8172 120.218C95.5704 117.128 101.096 115.583 107.394 115.583C112.622 115.583 117.019 116.534 120.584 118.435C124.268 120.336 127.179 122.594 129.318 125.208C130.269 122.475 131.813 120.515 133.952 119.326C136.21 118.019 138.884 117.366 141.973 117.366H142.865C144.172 117.366 144.825 118.079 144.825 119.505V182.425C144.825 183.732 144.172 184.386 142.865 184.386H129.675C128.486 184.386 127.892 183.732 127.892 182.425V176.008ZM110.781 169.948C113.038 169.948 115.474 169.473 118.089 168.522C120.822 167.452 123.139 165.551 125.04 162.818C126.941 160.085 127.892 156.045 127.892 150.697C127.892 145.35 126.941 141.369 125.04 138.755C123.139 136.022 120.881 134.24 118.267 133.408C115.653 132.457 113.217 131.982 110.959 131.982C108.582 131.982 106.027 132.516 103.294 133.586C100.68 134.655 98.4223 136.557 96.521 139.29C94.7385 142.023 93.8473 145.825 93.8473 150.697C93.8473 155.807 94.798 159.788 96.6992 162.64C98.7193 165.373 101.037 167.274 103.651 168.344C106.265 169.413 108.642 169.948 110.781 169.948ZM177.603 127.169C179.623 123.367 182.059 120.812 184.911 119.505C187.763 118.079 191.625 117.366 196.497 117.366H198.458C199.646 117.366 200.24 118.079 200.24 119.505V131.625C200.24 133.051 199.646 133.764 198.458 133.764H193.823C187.288 133.764 183.01 135.428 180.99 138.755C179.088 141.963 178.138 146.717 178.138 153.015V182.425C178.138 183.732 177.544 184.386 176.355 184.386H162.987C161.917 184.386 161.383 183.732 161.383 182.425V119.505C161.383 118.079 161.917 117.366 162.987 117.366H163.878C171.602 117.366 176.177 120.633 177.603 127.169ZM228.77 125.743C230.909 122.891 233.524 120.574 236.613 118.792C239.822 117.009 243.624 116.118 248.021 116.118C258.478 116.118 265.905 120.039 270.301 127.882C272.678 124.674 275.649 121.941 279.214 119.683C282.779 117.306 287.056 116.118 292.047 116.118C300.484 116.118 307.079 118.613 311.832 123.604C316.704 128.595 319.14 136.022 319.14 145.885V182.425C319.14 183.732 318.427 184.386 317.002 184.386H303.811C302.623 184.386 302.029 183.732 302.029 182.425V147.846C302.029 141.904 300.722 137.686 298.108 135.19C295.612 132.695 292.404 131.447 288.482 131.447C284.561 131.447 281.234 132.754 278.501 135.368C275.886 137.983 274.579 142.201 274.579 148.024V182.425C274.579 183.732 273.985 184.386 272.797 184.386H259.428C258.121 184.386 257.468 183.732 257.468 182.425V147.846C257.468 141.904 256.22 137.686 253.725 135.19C251.229 132.695 247.961 131.447 243.921 131.447C239.881 131.447 236.554 132.754 233.939 135.368C231.325 137.983 230.018 142.201 230.018 148.024V182.425C230.018 183.732 229.364 184.386 228.057 184.386H214.511C213.441 184.386 212.907 183.732 212.907 182.425V119.505C212.907 118.079 213.441 117.366 214.511 117.366H215.402C218.848 117.366 221.7 118.079 223.958 119.505C226.334 120.812 227.939 122.891 228.77 125.743ZM402.652 163.531V146.063H388.928C382.035 146.063 378.589 142.736 378.589 136.081V132.873C378.589 131.091 379.362 130.199 380.907 130.199H417.09C418.397 130.199 419.051 130.972 419.051 132.516V167.452C419.051 169.116 418.813 170.483 418.338 171.552C417.863 172.503 416.912 173.572 415.486 174.761C410.495 178.682 405.385 181.593 400.157 183.495C394.928 185.277 389.046 186.168 382.511 186.168C373.717 186.168 365.696 184.386 358.448 180.821C351.199 177.256 345.436 171.671 341.158 164.066C336.88 156.461 334.741 146.657 334.741 134.655C334.741 124.08 336.702 114.989 340.623 107.384C344.545 99.66 350.13 93.7779 357.378 89.7377C364.746 85.5787 373.42 83.4991 383.402 83.4991C388.393 83.4991 392.79 83.915 396.592 84.7469C400.513 85.4598 404.138 86.4699 407.465 87.777C411.03 89.0841 413.347 90.7478 414.417 92.7679C415.486 94.788 415.545 97.4617 414.595 100.789L413.704 104.889C413.347 106.433 412.694 107.206 411.743 107.206C411.386 107.206 410.97 107.087 410.495 106.849C410.02 106.493 409.485 106.255 408.891 106.136C401.524 102.096 393.443 100.076 384.65 100.076C374.906 100.076 367.182 102.928 361.478 108.632C355.893 114.217 353.1 123.188 353.1 135.547C353.1 146.36 355.655 154.797 360.765 160.857C365.875 166.799 373.064 169.77 382.332 169.77C386.135 169.77 389.641 169.294 392.849 168.344C396.057 167.393 399.325 165.789 402.652 163.531ZM465.849 186.168C455.035 186.168 447.192 183.019 442.32 176.721C437.448 170.423 435.012 162.165 435.012 151.945V119.505C435.012 118.079 435.606 117.366 436.795 117.366H437.686C442.32 117.366 445.885 118.554 448.381 120.931C450.876 123.307 452.124 127.169 452.124 132.516V154.084C452.124 159.788 453.431 163.947 456.045 166.561C458.659 169.176 461.927 170.483 465.849 170.483C469.889 170.483 473.275 169.294 476.009 166.918C478.742 164.422 480.108 160.204 480.108 154.262V119.505C480.108 118.079 480.762 117.366 482.069 117.366H482.96C487.594 117.366 491.1 118.554 493.477 120.931C495.972 123.307 497.22 127.169 497.22 132.516V153.015C497.22 163.115 494.724 171.196 489.733 177.256C484.743 183.197 476.781 186.168 465.849 186.168ZM530.089 127.169C532.109 123.367 534.545 120.812 537.397 119.505C540.249 118.079 544.111 117.366 548.983 117.366H550.944C552.132 117.366 552.726 118.079 552.726 119.505V131.625C552.726 133.051 552.132 133.764 550.944 133.764H546.309C539.774 133.764 535.496 135.428 533.476 138.755C531.575 141.963 530.624 146.717 530.624 153.015V182.425C530.624 183.732 530.03 184.386 528.841 184.386H515.473C514.404 184.386 513.869 183.732 513.869 182.425V119.505C513.869 118.079 514.404 117.366 515.473 117.366H516.364C524.088 117.366 528.663 120.633 530.089 127.169ZM596.051 186.168C585.237 186.168 577.395 183.019 572.523 176.721C567.651 170.423 565.215 162.165 565.215 151.945V119.505C565.215 118.079 565.809 117.366 566.997 117.366H567.888C572.523 117.366 576.087 118.554 578.583 120.931C581.078 123.307 582.326 127.169 582.326 132.516V154.084C582.326 159.788 583.633 163.947 586.247 166.561C588.862 169.176 592.129 170.483 596.051 170.483C600.091 170.483 603.478 169.294 606.211 166.918C608.944 164.422 610.31 160.204 610.31 154.262V119.505C610.31 118.079 610.964 117.366 612.271 117.366H613.162C617.797 117.366 621.302 118.554 623.679 120.931C626.174 123.307 627.422 127.169 627.422 132.516V153.015C627.422 163.115 624.927 171.196 619.936 177.256C614.945 183.197 606.983 186.168 596.051 186.168Z" fill="white"/>
<path d="M577.985 0V29.2979C577.99 39.0529 576.063 48.7123 572.314 57.7183H520.604V5.53555C529.424 1.89111 538.873 0.010489 548.417 0L577.985 0Z" fill="#39B54A"/>
<path d="M520.608 5.5354V57.7181L475.244 103.083V73.7172C475.217 59.1406 479.512 44.8832 487.587 32.7473C495.661 20.6114 507.153 11.1418 520.608 5.5354Z" fill="#8DC63F"/>
<path d="M572.318 57.7183C566.728 71.1577 557.281 82.6393 545.17 90.7133C533.059 98.7874 518.827 103.092 504.271 103.083H475.243L520.608 57.7183H572.318Z" fill="#009444"/>
<path d="M411.447 41.5188V59.003C411.451 64.8396 412.597 70.619 414.823 76.0147H445.741V44.8266C440.435 42.6253 434.744 41.5009 428.999 41.5188H411.447Z" fill="#8DC63F"/>
<path d="M445.742 44.8236V76.0117L472.744 103.014V85.4627C472.753 76.7808 470.194 68.2902 465.39 61.059C460.585 53.8279 453.749 48.1792 445.742 44.8236Z" fill="#39B54A"/>
<path d="M414.822 76.0089C418.161 84.0002 423.787 90.8266 430.994 95.6308C438.2 100.435 446.665 103.003 455.326 103.012H472.675L445.673 76.0089H414.822Z" fill="#009444"/>
</svg>
