<svg width="136" height="51" viewBox="0 0 136 51" fill="none" xmlns="http://www.w3.org/2000/svg">
<path d="M116.67 1V5.34C116.671 6.78504 116.385 8.21592 115.83 9.55H108.17V1.82C109.476 1.28014 110.876 1.00155 112.29 1L116.67 1Z" fill="#39B54A"/>
<path d="M108.17 1.81982V9.54982L101.45 16.2698V11.9198C101.446 9.76054 102.083 7.64855 103.279 5.85082C104.475 4.05309 106.177 2.65032 108.17 1.81982Z" fill="#8DC63F"/>
<path d="M115.83 9.5498C115.002 11.5406 113.603 13.2414 111.809 14.4375C110.015 15.6335 107.906 16.2711 105.75 16.2698H101.45L108.17 9.5498H115.83Z" fill="#009444"/>
<path d="M5.64045 24.6303V32.5997C5.64045 32.8666 5.50702 33 5.24016 33H2.47452C2.20766 33 2.07423 32.8666 2.07423 32.5997V13.2038C2.07423 12.9127 2.20766 12.7672 2.47452 12.7672H11.8631C13.2702 12.7672 13.9738 13.4586 13.9738 14.8414V15.6056C13.9738 15.9452 13.8039 16.115 13.4643 16.115H5.64045V21.3916H11.0262C12.4575 21.3916 13.1732 22.0587 13.1732 23.393V24.1208C13.1732 24.4605 13.0034 24.6303 12.6637 24.6303H5.64045ZM26.1101 31.2897C25.0912 32.6482 23.672 33.3275 21.8525 33.3275C20.0087 33.3275 18.5289 32.7089 17.4129 31.4716C16.1999 30.1373 15.5934 28.3542 15.5934 26.1223C15.5934 24.1815 16.0907 22.5682 17.0854 21.2824C18.2741 19.7298 19.8874 18.9535 21.9253 18.9535C23.8418 18.9535 25.3338 19.6085 26.4012 20.9185C26.7409 19.8511 27.6021 19.3174 28.9849 19.3174H29.1669C29.4337 19.3174 29.5672 19.4629 29.5672 19.754V32.5997C29.5672 32.8666 29.4337 33 29.1669 33H26.474C26.2314 33 26.1101 32.8666 26.1101 32.5997V31.2897ZM22.6167 30.0524C23.7084 30.0524 24.5575 29.7128 25.164 29.0335C25.7947 28.3299 26.1101 27.3595 26.1101 26.1223C26.1101 24.9093 25.8069 23.9753 25.2004 23.3203C24.6181 22.641 23.769 22.3013 22.6531 22.3013C21.5856 22.3013 20.7365 22.6531 20.1058 23.3566C19.475 24.0359 19.1596 24.9578 19.1596 26.1223C19.1596 27.311 19.475 28.2693 20.1058 28.9971C20.7365 29.7006 21.5735 30.0524 22.6167 30.0524ZM36.2589 21.3188C36.6714 20.5667 37.1566 20.0452 37.7145 19.754C38.2725 19.4629 39.0731 19.3174 40.1163 19.3174H40.5166C40.7592 19.3174 40.8805 19.4629 40.8805 19.754V22.2286C40.8805 22.5197 40.7592 22.6652 40.5166 22.6652H39.5704C38.3817 22.6652 37.5568 22.9564 37.0959 23.5386C36.6107 24.0966 36.3681 25.1155 36.3681 26.5954V32.5997C36.3681 32.8666 36.2468 33 36.0042 33H33.275C33.0566 33 32.9474 32.8666 32.9474 32.5997V19.754C32.9474 19.4629 33.0566 19.3174 33.275 19.3174H33.4569C35.0338 19.3174 35.9678 19.9845 36.2589 21.3188ZM46.7051 21.0277C47.6998 19.7176 49.0098 19.0626 50.6353 19.0626C52.7459 19.0626 54.2621 19.8632 55.184 21.4644C56.3485 19.8632 57.8284 19.0626 59.6236 19.0626C61.2733 19.0626 62.5591 19.5114 63.4809 20.4091C64.5969 21.4522 65.1549 23.0291 65.1549 25.1398V32.5997C65.1549 32.8666 65.0093 33 64.7182 33H62.0253C61.7827 33 61.6614 32.8666 61.6614 32.5997V25.54C61.6614 23.3081 60.7396 22.1922 58.8958 22.1922C57.9982 22.1922 57.2946 22.4954 56.7852 23.1019C56.3 23.6842 56.0574 24.509 56.0574 25.5764V32.5997C56.0574 32.8666 55.9361 33 55.6935 33H52.9642C52.6974 33 52.5639 32.8666 52.5639 32.5997V25.54C52.5639 23.3081 51.6421 22.1922 49.7983 22.1922C47.906 22.1922 46.9599 23.3203 46.9599 25.5764V32.5997C46.9599 32.8666 46.8264 33 46.5596 33H43.7939C43.5756 33 43.4664 32.8666 43.4664 32.5997V19.754C43.4664 19.4629 43.5756 19.3174 43.7939 19.3174H43.9759C45.48 19.3174 46.3898 19.8875 46.7051 21.0277ZM87.8904 28.7424V25.1762H85.0883C83.6813 25.1762 82.9777 24.4969 82.9777 23.1383V22.4833C82.9777 22.1194 83.1354 21.9374 83.4508 21.9374H90.838C91.1048 21.9374 91.2383 22.0951 91.2383 22.4105V29.5429C91.2383 30.1494 90.9957 30.6468 90.5105 31.0349C88.5211 32.5876 86.2771 33.3639 83.7783 33.3639C81.1097 33.3639 78.9263 32.6361 77.2281 31.1805C75.0932 29.361 74.0258 26.5832 74.0258 22.8472C74.0258 19.8389 74.8021 17.4129 76.3547 15.5692C78.15 13.4586 80.6852 12.4033 83.9603 12.4033C85.7798 12.4033 87.4173 12.6944 88.8729 13.2766C89.5765 13.5435 90.0374 13.8831 90.2557 14.2955C90.4983 14.708 90.5226 15.2538 90.3285 15.9331L90.1466 16.7701C90.0495 17.0854 89.9161 17.2431 89.7463 17.2431C89.6735 17.2431 89.5158 17.1825 89.2732 17.0612C89.2247 17.0369 89.1883 17.0248 89.164 17.0248C87.6356 16.1999 85.986 15.7875 84.215 15.7875C79.921 15.7875 77.774 18.2014 77.774 23.0291C77.774 25.0912 78.2228 26.7288 79.1204 27.9418C80.1636 29.3246 81.7041 30.016 83.7419 30.016C85.2703 30.016 86.6531 29.5915 87.8904 28.7424ZM100.792 33.3639C98.803 33.3639 97.2746 32.8059 96.2072 31.69C95.067 30.5012 94.4969 28.7302 94.4969 26.377V19.754C94.4969 19.4629 94.6182 19.3174 94.8608 19.3174H95.0427C97.0078 19.3174 97.9903 20.3484 97.9903 22.4105V26.8137C97.9903 27.8811 98.2329 28.706 98.7181 29.2882C99.2033 29.8705 99.8947 30.1616 100.792 30.1616C102.733 30.1616 103.704 29.0577 103.704 26.8501V19.754C103.704 19.4629 103.837 19.3174 104.104 19.3174H104.286C106.227 19.3174 107.197 20.3484 107.197 22.4105V26.5954C107.197 31.1077 105.062 33.3639 100.792 33.3639ZM113.908 21.3188C114.32 20.5667 114.805 20.0452 115.363 19.754C115.921 19.4629 116.722 19.3174 117.765 19.3174H118.165C118.408 19.3174 118.529 19.4629 118.529 19.754V22.2286C118.529 22.5197 118.408 22.6652 118.165 22.6652H117.219C116.03 22.6652 115.205 22.9564 114.744 23.5386C114.259 24.0966 114.017 25.1155 114.017 26.5954V32.5997C114.017 32.8666 113.895 33 113.653 33H110.924C110.705 33 110.596 32.8666 110.596 32.5997V19.754C110.596 19.4629 110.705 19.3174 110.924 19.3174H111.105C112.682 19.3174 113.616 19.9845 113.908 21.3188ZM127.374 33.3639C125.385 33.3639 123.856 32.8059 122.789 31.69C121.649 30.5012 121.079 28.7302 121.079 26.377V19.754C121.079 19.4629 121.2 19.3174 121.443 19.3174H121.624C123.59 19.3174 124.572 20.3484 124.572 22.4105V26.8137C124.572 27.8811 124.815 28.706 125.3 29.2882C125.785 29.8705 126.476 30.1616 127.374 30.1616C129.315 30.1616 130.285 29.0577 130.285 26.8501V19.754C130.285 19.4629 130.419 19.3174 130.686 19.3174H130.868C132.808 19.3174 133.779 20.3484 133.779 22.4105V26.5954C133.779 31.1077 131.644 33.3639 127.374 33.3639Z" fill="white"/>
<path d="M92 7.14993V9.73993C92.0005 10.6045 92.1704 11.4606 92.5 12.2599H97.08V7.63993C96.294 7.31385 95.451 7.14729 94.6 7.14993H92Z" fill="#39B54A"/>
<path d="M97.0801 7.63965V12.2596L101.08 16.2596V13.6596C101.081 12.3736 100.702 11.1158 99.9906 10.0447C99.2788 8.97348 98.2662 8.13672 97.0801 7.63965Z" fill="#39B54A"/>
<path d="M92.5 12.2598C92.9947 13.4435 93.8281 14.4548 94.8956 15.1664C95.9631 15.8781 97.217 16.2585 98.5 16.2598H101.07L97.07 12.2598H92.5Z" fill="#009444"/>
</svg>
